<svg width="12" height="12" viewBox="0 0 12 12" fill="none" xmlns="http://www.w3.org/2000/svg">
<path id="Vector" d="M6.5625 9.02344C6.5625 9.13932 6.52814 9.25261 6.46375 9.34897C6.39937 9.44532 6.30786 9.52042 6.20079 9.56477C6.09373 9.60912 5.97591 9.62072 5.86225 9.59811C5.74859 9.57551 5.64419 9.5197 5.56224 9.43776C5.4803 9.35581 5.42449 9.25141 5.40189 9.13775C5.37928 9.02409 5.39088 8.90627 5.43523 8.79921C5.47958 8.69214 5.55468 8.60063 5.65104 8.53625C5.74739 8.47186 5.86068 8.4375 5.97657 8.4375C6.13197 8.4375 6.281 8.49923 6.39089 8.60912C6.50077 8.719 6.5625 8.86804 6.5625 9.02344ZM5.97657 2.8125C4.7461 2.8125 3.75 3.70605 3.75 4.80469V5.03906C3.75 5.1323 3.78704 5.22172 3.85297 5.28765C3.9189 5.35358 4.00833 5.39062 4.10157 5.39062C4.19481 5.39062 4.28423 5.35358 4.35016 5.28765C4.41609 5.22172 4.45313 5.1323 4.45313 5.03906V4.80469C4.45313 4.09395 5.13633 3.51562 5.97657 3.51562C6.8168 3.51562 7.5 4.09395 7.5 4.80469C7.5 5.51543 6.8168 6.09375 5.97657 6.09375C5.88333 6.09375 5.7939 6.13079 5.72797 6.19672C5.66204 6.26265 5.625 6.35207 5.625 6.44531V6.91406C5.625 7.0073 5.66204 7.09672 5.72797 7.16265C5.7939 7.22859 5.88333 7.26562 5.97657 7.26562C6.06981 7.26562 6.15923 7.22859 6.22516 7.16265C6.29109 7.09672 6.32813 7.0073 6.32813 6.91406V6.77227C7.38926 6.62109 8.20313 5.79609 8.20313 4.80469C8.20313 3.70605 7.20703 2.8125 5.97657 2.8125ZM11.9531 5.97656C11.9531 7.15861 11.6026 8.31412 10.9459 9.29696C10.2892 10.2798 9.35577 11.0458 8.2637 11.4982C7.17162 11.9505 5.96993 12.0689 4.8106 11.8383C3.65126 11.6077 2.58633 11.0385 1.7505 10.2026C0.91466 9.36679 0.345448 8.30187 0.114841 7.14253C-0.115766 5.98319 0.00258945 4.78151 0.454941 3.68943C0.907293 2.59736 1.67332 1.66395 2.65616 1.00723C3.63901 0.350519 4.79451 0 5.97657 0C7.56108 0.00186085 9.08016 0.63213 10.2006 1.75255C11.321 2.87297 11.9513 4.39205 11.9531 5.97656ZM11.25 5.97656C11.25 4.93357 10.9407 3.91401 10.3613 3.0468C9.78182 2.17959 8.95822 1.50368 7.99462 1.10454C7.03103 0.705407 5.97072 0.600976 4.94777 0.804453C3.92482 1.00793 2.98519 1.51018 2.24768 2.24768C1.51018 2.98518 1.00793 3.92482 0.804455 4.94777C0.600979 5.97071 0.70541 7.03102 1.10454 7.99462C1.50368 8.95821 2.17959 9.78181 3.0468 10.3613C3.91401 10.9407 4.93358 11.25 5.97657 11.25C7.37469 11.2484 8.71511 10.6924 9.70374 9.70373C10.6924 8.71511 11.2485 7.37469 11.25 5.97656Z" fill="#FFFFFF"/>
</svg>
