<svg id="eVRqJaoSn0W1" xmlns="http://www.w3.org/2000/svg" xmlns:xlink="http://www.w3.org/1999/xlink" viewBox="0 0 70 70" shape-rendering="geometricPrecision" text-rendering="geometricPrecision"><ellipse rx="20.8884" ry="20.8884" transform="matrix(1.675571 0 0 1.675571 34.999997 34.999997)" fill="#92c83e" stroke-width="0"/><rect width="15.4825" height="18.4233" rx="0" ry="0" transform="matrix(1.145278 0-.328402 1.145278 19.5166 24.663659)" fill="#fff" stroke-width="0"/><rect width="15.4825" height="18.4233" rx="0" ry="0" transform="matrix(1.145278 0-.328402 1.145278 39.5939 24.7346)" fill="#fff" stroke-width="0"/><rect width="5.62214" height="7.35203" rx="0" ry="0" transform="matrix(1.145278 0-.328402 1.145278 43.1629 31.0035)" fill="#92c83e" stroke-width="0"/><rect width="7" height="7" rx="0" ry="0" transform="matrix(2.700488 0-.086207 0.300639 17.4318 30.2472)" fill="#92c83e" stroke-width="0"/><rect width="7" height="7.61841" rx="0" ry="0" transform="matrix(2.624531 0-.096846 0.337742 15.6796 36.850564)" fill="#92c83e" stroke-width="0"/><path d="M32.405165,32.781409l-3.892253,5.162346h3.892252l.000001-5.162346Z" transform="matrix(1.391282 0-.35385 1.234023 3.530482-9.78)" fill="#92c83e" stroke="rgba(63,87,135,0)" stroke-width="0.5"/><path d="M57.325667,29.158443L48.394602,35.2845l8.931064,11.897566.000001-18.023623Z" transform="translate(-.140134 0.378529)" fill="#92c83e" stroke="rgba(63,87,135,0)" stroke-width="0.5"/></svg>
